# xmcd
#
# Track frame offsets: 
#        150
#        29160
#        68135
#        85459
#        123842
#        150784
#
# Disc length: 2935 seconds
#
# Revision: 3
# Processed by: cddbd v1.5.2PL0 Copyright (c) Steve Scherf et al.
# Submitted via: ExactAudioCopy v1.3
#
DISCID=440b7506
DTITLE=Joe Bonamassa - British Blues Explosion Live [CD 2)
DYEAR=2018
DGENRE=Blues
TTITLE0=Swlabr
TTITLE1=Tea For One - I Can't Quit You Baby
TTITLE2=Little Girl
TTITLE3=Pretending
TTITLE4=Black Winter - Django
TTITLE5=How Many More Times
EXTD=MARO\n
EXTT0=
EXTT1=
EXTT2=
EXTT3=
EXTT4=
EXTT5=
PLAYORDER=
